<mxfile host="app.diagrams.net" modified="2024-05-07T12:15:11.075Z" agent="Mozilla/5.0 (Windows NT 10.0; Win64; x64) AppleWebKit/537.36 (KHTML, like Gecko) Chrome/124.0.0.0 Safari/537.36 Edg/124.0.0.0" etag="6KfnQKxdhN1psl8pCcbS" version="24.3.1" type="device">
  <diagram name="Page-1" id="6XmmyCbNYoK8zvnnuFIs">
    <mxGraphModel dx="1177" dy="1182" grid="1" gridSize="10" guides="1" tooltips="1" connect="1" arrows="1" fold="1" page="1" pageScale="1" pageWidth="850" pageHeight="1100" math="0" shadow="0">
      <root>
        <mxCell id="0" />
        <mxCell id="1" parent="0" />
        <mxCell id="jnE0jccUsxHlS0_6Bbab-36" value="" style="edgeStyle=orthogonalEdgeStyle;rounded=0;orthogonalLoop=1;jettySize=auto;html=1;" parent="1" source="jnE0jccUsxHlS0_6Bbab-33" target="jnE0jccUsxHlS0_6Bbab-27" edge="1">
          <mxGeometry relative="1" as="geometry" />
        </mxCell>
        <mxCell id="jnE0jccUsxHlS0_6Bbab-33" value="" style="rounded=1;whiteSpace=wrap;html=1;" parent="1" vertex="1">
          <mxGeometry x="149.37" y="560" width="300" height="110" as="geometry" />
        </mxCell>
        <mxCell id="jnE0jccUsxHlS0_6Bbab-8" value="" style="edgeStyle=orthogonalEdgeStyle;rounded=0;orthogonalLoop=1;jettySize=auto;html=1;" parent="1" source="jnE0jccUsxHlS0_6Bbab-4" target="jnE0jccUsxHlS0_6Bbab-5" edge="1">
          <mxGeometry relative="1" as="geometry" />
        </mxCell>
        <mxCell id="jnE0jccUsxHlS0_6Bbab-4" value="" style="rounded=1;whiteSpace=wrap;html=1;movable=1;resizable=1;rotatable=1;deletable=1;editable=1;locked=0;connectable=1;" parent="1" vertex="1">
          <mxGeometry x="185.62" y="30" width="230" height="100" as="geometry" />
        </mxCell>
        <mxCell id="jnE0jccUsxHlS0_6Bbab-2" value="&lt;h1&gt;&lt;font face=&quot;Times New Roman&quot;&gt;Advanced Coding Chatbot 2024 Roadmap&lt;/font&gt;&lt;/h1&gt;" style="text;html=1;align=center;verticalAlign=middle;whiteSpace=wrap;rounded=0;" parent="1" vertex="1">
          <mxGeometry x="515" y="10" width="320" height="100" as="geometry" />
        </mxCell>
        <mxCell id="jnE0jccUsxHlS0_6Bbab-3" value="&lt;h1 style=&quot;margin-top: 0px;&quot;&gt;Neo4J integration&lt;/h1&gt;&lt;p&gt;Neo4J is a graph DB, which will enable advanced ingestion and retrieval algorithms.&lt;/p&gt;" style="text;html=1;whiteSpace=wrap;overflow=hidden;rounded=0;movable=1;resizable=1;rotatable=1;deletable=1;editable=1;locked=0;connectable=1;" parent="1" vertex="1">
          <mxGeometry x="193.12" y="30" width="230" height="90" as="geometry" />
        </mxCell>
        <mxCell id="jnE0jccUsxHlS0_6Bbab-18" value="" style="edgeStyle=orthogonalEdgeStyle;rounded=0;orthogonalLoop=1;jettySize=auto;html=1;" parent="1" source="jnE0jccUsxHlS0_6Bbab-5" target="jnE0jccUsxHlS0_6Bbab-9" edge="1">
          <mxGeometry relative="1" as="geometry" />
        </mxCell>
        <mxCell id="jnE0jccUsxHlS0_6Bbab-5" value="Multitenancy&lt;div&gt;&lt;ul&gt;&lt;li&gt;https://jira.telekom.de/browse/AI4C-111&lt;/li&gt;&lt;li&gt;https://jira.telekom.de/browse/AI4C-168&lt;br&gt;&lt;/li&gt;&lt;li&gt;https://jira.telekom.de/browse/AI4C-169&lt;br&gt;&lt;/li&gt;&lt;/ul&gt;&lt;/div&gt;" style="rounded=1;whiteSpace=wrap;html=1;" parent="1" vertex="1">
          <mxGeometry x="165.62" y="180" width="270" height="100" as="geometry" />
        </mxCell>
        <mxCell id="jnE0jccUsxHlS0_6Bbab-19" value="" style="edgeStyle=orthogonalEdgeStyle;rounded=0;orthogonalLoop=1;jettySize=auto;html=1;" parent="1" source="jnE0jccUsxHlS0_6Bbab-9" target="jnE0jccUsxHlS0_6Bbab-12" edge="1">
          <mxGeometry relative="1" as="geometry" />
        </mxCell>
        <mxCell id="jnE0jccUsxHlS0_6Bbab-9" value="Simple code ingestion/retrieval&lt;div&gt;https://jira.telekom.de/browse/AI4C-167&lt;br&gt;&lt;/div&gt;" style="rounded=1;whiteSpace=wrap;html=1;" parent="1" vertex="1">
          <mxGeometry x="165" y="320" width="270" height="60" as="geometry" />
        </mxCell>
        <mxCell id="jnE0jccUsxHlS0_6Bbab-35" value="" style="edgeStyle=orthogonalEdgeStyle;rounded=0;orthogonalLoop=1;jettySize=auto;html=1;" parent="1" source="jnE0jccUsxHlS0_6Bbab-12" target="jnE0jccUsxHlS0_6Bbab-33" edge="1">
          <mxGeometry relative="1" as="geometry" />
        </mxCell>
        <mxCell id="jnE0jccUsxHlS0_6Bbab-12" value="Advanced code ingestion/retrieval&lt;br&gt;&lt;ul&gt;&lt;li&gt;https://jira.telekom.de/browse/AI4C-166&lt;/li&gt;&lt;li&gt;https://jira.telekom.de/browse/AI4C-171&lt;br&gt;&lt;/li&gt;&lt;/ul&gt;" style="rounded=1;whiteSpace=wrap;html=1;" parent="1" vertex="1">
          <mxGeometry x="163.75" y="420" width="271.25" height="100" as="geometry" />
        </mxCell>
        <mxCell id="jnE0jccUsxHlS0_6Bbab-14" value="" style="strokeWidth=2;html=1;shape=mxgraph.flowchart.annotation_2;align=left;labelPosition=right;pointerEvents=1;" parent="1" vertex="1">
          <mxGeometry x="95" y="180" width="50" height="200" as="geometry" />
        </mxCell>
        <mxCell id="jnE0jccUsxHlS0_6Bbab-15" value="Jun" style="text;html=1;align=center;verticalAlign=middle;whiteSpace=wrap;rounded=0;" parent="1" vertex="1">
          <mxGeometry x="25" y="265" width="60" height="30" as="geometry" />
        </mxCell>
        <mxCell id="jnE0jccUsxHlS0_6Bbab-16" value="" style="strokeWidth=2;html=1;shape=mxgraph.flowchart.annotation_2;align=left;labelPosition=right;pointerEvents=1;" parent="1" vertex="1">
          <mxGeometry x="95" y="420" width="50" height="100" as="geometry" />
        </mxCell>
        <mxCell id="jnE0jccUsxHlS0_6Bbab-17" value="August" style="text;html=1;align=center;verticalAlign=middle;whiteSpace=wrap;rounded=0;" parent="1" vertex="1">
          <mxGeometry x="20" y="455" width="70" height="30" as="geometry" />
        </mxCell>
        <mxCell id="jnE0jccUsxHlS0_6Bbab-24" value="" style="endArrow=none;dashed=1;html=1;dashPattern=1 3;strokeWidth=2;rounded=0;" parent="1" edge="1">
          <mxGeometry width="50" height="50" relative="1" as="geometry">
            <mxPoint x="470" y="920" as="sourcePoint" />
            <mxPoint x="470" y="110" as="targetPoint" />
          </mxGeometry>
        </mxCell>
        <mxCell id="jnE0jccUsxHlS0_6Bbab-26" value="While &lt;b&gt;Advanced Coding Chatbot&lt;/b&gt; features are being developed, there are constantly ongoing processes. For example:&lt;div&gt;&lt;ul&gt;&lt;li&gt;PSA&lt;/li&gt;&lt;li&gt;Continuous integration and continuous deployment&lt;/li&gt;&lt;li&gt;Integration testing&lt;/li&gt;&lt;li&gt;Research, because of the constantly evolving and changing AI ecosystem&lt;/li&gt;&lt;/ul&gt;&lt;div&gt;These processes, while not visible to the user, ensure &lt;b&gt;stability&lt;/b&gt;, &lt;b&gt;security &lt;/b&gt;and &lt;b&gt;maintainability&lt;/b&gt;.&lt;/div&gt;&lt;/div&gt;" style="text;html=1;align=left;verticalAlign=middle;whiteSpace=wrap;rounded=0;" parent="1" vertex="1">
          <mxGeometry x="510" y="445" width="330" height="210" as="geometry" />
        </mxCell>
        <mxCell id="jnE0jccUsxHlS0_6Bbab-37" value="" style="edgeStyle=orthogonalEdgeStyle;rounded=0;orthogonalLoop=1;jettySize=auto;html=1;" parent="1" source="jnE0jccUsxHlS0_6Bbab-27" target="jnE0jccUsxHlS0_6Bbab-28" edge="1">
          <mxGeometry relative="1" as="geometry" />
        </mxCell>
        <mxCell id="jnE0jccUsxHlS0_6Bbab-27" value="Gitlab Integration with the Advanced Chatbot" style="rounded=1;whiteSpace=wrap;html=1;" parent="1" vertex="1">
          <mxGeometry x="164.38" y="720" width="270" height="60" as="geometry" />
        </mxCell>
        <mxCell id="jnE0jccUsxHlS0_6Bbab-39" value="" style="edgeStyle=orthogonalEdgeStyle;rounded=0;orthogonalLoop=1;jettySize=auto;html=1;" parent="1" source="jnE0jccUsxHlS0_6Bbab-28" target="jnE0jccUsxHlS0_6Bbab-38" edge="1">
          <mxGeometry relative="1" as="geometry" />
        </mxCell>
        <mxCell id="jnE0jccUsxHlS0_6Bbab-28" value="Init Agentic Behavior" style="rounded=1;whiteSpace=wrap;html=1;" parent="1" vertex="1">
          <mxGeometry x="239.37" y="840" width="120" height="60" as="geometry" />
        </mxCell>
        <mxCell id="jnE0jccUsxHlS0_6Bbab-29" value="&lt;div&gt;&lt;ul&gt;&lt;li&gt;Coding Chatbot will understand Telekom&#39;s code on a deeper level&lt;/li&gt;&lt;li&gt;Coding Chatbot will allow to migrate code based on understanding the whole codebase&lt;/li&gt;&lt;li&gt;Coding Chatbot will have metacognition ability&lt;/li&gt;&lt;li&gt;Coding Chatbot will have increased capacity to interact with the user (pose questions)&lt;/li&gt;&lt;/ul&gt;&lt;/div&gt;" style="text;html=1;align=left;verticalAlign=middle;whiteSpace=wrap;rounded=0;perimeterSpacing=0;strokeWidth=1;spacing=0;" parent="1" vertex="1">
          <mxGeometry x="490" y="80" width="350" height="160" as="geometry" />
        </mxCell>
        <mxCell id="jnE0jccUsxHlS0_6Bbab-32" value="&lt;h1 style=&quot;margin-top: 0px;&quot;&gt;Advanced Capabilities&lt;/h1&gt;&lt;p&gt;DT integration, Init System 2 thinking, Increased interaction with the user...&lt;/p&gt;" style="text;html=1;whiteSpace=wrap;overflow=hidden;rounded=0;" parent="1" vertex="1">
          <mxGeometry x="166.87" y="570" width="265" height="90" as="geometry" />
        </mxCell>
        <mxCell id="jnE0jccUsxHlS0_6Bbab-45" value="" style="edgeStyle=orthogonalEdgeStyle;rounded=0;orthogonalLoop=1;jettySize=auto;html=1;" parent="1" source="jnE0jccUsxHlS0_6Bbab-38" target="jnE0jccUsxHlS0_6Bbab-44" edge="1">
          <mxGeometry relative="1" as="geometry" />
        </mxCell>
        <mxCell id="jnE0jccUsxHlS0_6Bbab-38" value="Research on Internal &amp;lt;-&amp;gt; External knowledge ingestion/retrieval based on Graphs and Vectors" style="rounded=1;whiteSpace=wrap;html=1;" parent="1" vertex="1">
          <mxGeometry x="204.37" y="960" width="190" height="80" as="geometry" />
        </mxCell>
        <mxCell id="jnE0jccUsxHlS0_6Bbab-40" value="" style="strokeWidth=2;html=1;shape=mxgraph.flowchart.annotation_2;align=left;labelPosition=right;pointerEvents=1;" parent="1" vertex="1">
          <mxGeometry x="95" y="720" width="50" height="180" as="geometry" />
        </mxCell>
        <mxCell id="jnE0jccUsxHlS0_6Bbab-41" value="Autumn" style="text;html=1;align=center;verticalAlign=middle;whiteSpace=wrap;rounded=0;" parent="1" vertex="1">
          <mxGeometry x="10" y="795" width="80" height="30" as="geometry" />
        </mxCell>
        <mxCell id="jnE0jccUsxHlS0_6Bbab-44" value="2025 ..." style="rounded=1;whiteSpace=wrap;html=1;" parent="1" vertex="1">
          <mxGeometry x="261.55" y="1100" width="75.63" height="50" as="geometry" />
        </mxCell>
        <mxCell id="jnE0jccUsxHlS0_6Bbab-46" value="" style="strokeWidth=2;html=1;shape=mxgraph.flowchart.annotation_2;align=left;labelPosition=right;pointerEvents=1;" parent="1" vertex="1">
          <mxGeometry x="99.37" y="965" width="50" height="180" as="geometry" />
        </mxCell>
        <mxCell id="jnE0jccUsxHlS0_6Bbab-47" value="Winter" style="text;html=1;align=center;verticalAlign=middle;whiteSpace=wrap;rounded=0;" parent="1" vertex="1">
          <mxGeometry x="15" y="1040" width="80" height="30" as="geometry" />
        </mxCell>
        <mxCell id="Y-FpDR45313aMh6WbZ6N-2" value="&lt;ul&gt;&lt;li style=&quot;text-align: left;&quot;&gt;No legacy code migration Research Papers&lt;/li&gt;&lt;li style=&quot;text-align: left;&quot;&gt;Conformation by a human - to steer the AI =&amp;gt; more likely to generate correct output&lt;/li&gt;&lt;li style=&quot;text-align: left;&quot;&gt;Ability to migrate to more complicated architecture =&amp;gt; scaling&lt;/li&gt;&lt;li style=&quot;text-align: left;&quot;&gt;Bottlenecks for LLMs =&amp;gt; Introduce a queue?&lt;/li&gt;&lt;li style=&quot;text-align: left;&quot;&gt;Direct Gitlab integration instead of direct file upload?&lt;/li&gt;&lt;/ul&gt;" style="text;html=1;align=center;verticalAlign=middle;whiteSpace=wrap;rounded=0;" vertex="1" parent="1">
          <mxGeometry x="490" y="680" width="320" height="140" as="geometry" />
        </mxCell>
      </root>
    </mxGraphModel>
  </diagram>
</mxfile>
